<svg width="34" height="35" viewBox="0 0 34 35" fill="none" xmlns="http://www.w3.org/2000/svg">
<path d="M28.9783 0.900635H5.75366C2.99224 0.900635 0.753662 3.13922 0.753662 5.90064V29.1206C0.753662 31.8821 2.99224 34.1206 5.75366 34.1206H28.9783C31.7397 34.1206 33.9783 31.8821 33.9783 29.1206V5.90064C33.9783 3.13921 31.7397 0.900635 28.9783 0.900635Z" fill="#1C0E4C"/>
<path d="M8.72726 9.67784L24.7254 26.4579C24.9182 26.6601 25.1709 26.7533 25.4278 26.7167C25.6848 26.6802 25.9249 26.517 26.0953 26.263C26.2658 26.0091 26.3527 25.6852 26.3369 25.3625C26.3211 25.0399 26.2038 24.745 26.0109 24.5427L10.0128 7.76273C9.81997 7.56044 9.56728 7.46732 9.31036 7.50386C9.05344 7.5404 8.81333 7.7036 8.64286 7.95756C8.47238 8.21152 8.3855 8.53543 8.40133 8.85805C8.41715 9.18066 8.53439 9.47555 8.72726 9.67784Z" fill="#FDFCFF"/>
<path d="M24.7253 8.09983L8.72719 24.8799C8.53433 25.0821 8.41708 25.377 8.40126 25.6996C8.38543 26.0223 8.47231 26.3462 8.64279 26.6001C8.81327 26.8541 9.05338 27.0173 9.3103 27.0538C9.56722 27.0904 9.8199 26.9972 10.0128 26.795L26.0109 10.0149C26.2037 9.81266 26.321 9.51777 26.3368 9.19515C26.3526 8.87254 26.2658 8.54862 26.0953 8.29466C25.9248 8.0407 25.6847 7.8775 25.4278 7.84096C25.1709 7.80443 24.9182 7.89755 24.7253 8.09983Z" fill="#FDFCFF"/>
</svg>
