<svg width="34" height="34" viewBox="0 0 34 34" fill="none" xmlns="http://www.w3.org/2000/svg">
<path d="M28.9783 0.220215H5.75366C2.99224 0.220215 0.753662 2.4588 0.753662 5.22022V28.4402C0.753662 31.2016 2.99224 33.4402 5.75366 33.4402H28.9783C31.7397 33.4402 33.9783 31.2016 33.9783 28.4402V5.22022C33.9783 2.45879 31.7397 0.220215 28.9783 0.220215Z" fill="#1C0E4C"/>
<path d="M28.2826 15.3203H7.39849C7.14673 15.3203 6.90528 15.4264 6.72726 15.6152C6.54923 15.8039 6.44922 16.06 6.44922 16.327C6.44922 16.594 6.54923 16.85 6.72726 17.0388C6.90528 17.2276 7.14673 17.3336 7.39849 17.3336H28.2826C28.5343 17.3336 28.7758 17.2276 28.9538 17.0388C29.1318 16.85 29.2318 16.594 29.2318 16.327C29.2318 16.06 29.1318 15.8039 28.9538 15.6152C28.7758 15.4264 28.5343 15.3203 28.2826 15.3203Z" fill="#FDFCFF"/>
<path d="M7.39849 9.28042H28.2826C28.5343 9.28042 28.7758 9.17436 28.9538 8.98558C29.1318 8.79679 29.2318 8.54074 29.2318 8.27376C29.2318 8.00677 29.1318 7.75072 28.9538 7.56194C28.7758 7.37315 28.5343 7.26709 28.2826 7.26709H7.39849C7.14673 7.26709 6.90528 7.37315 6.72726 7.56194C6.54923 7.75072 6.44922 8.00677 6.44922 8.27376C6.44922 8.54074 6.54923 8.79679 6.72726 8.98558C6.90528 9.17436 7.14673 9.28042 7.39849 9.28042Z" fill="#FDFCFF"/>
<path d="M28.2826 23.3735H7.39849C7.14673 23.3735 6.90528 23.4796 6.72726 23.6684C6.54923 23.8572 6.44922 24.1132 6.44922 24.3802C6.44922 24.6472 6.54923 24.9032 6.72726 25.092C6.90528 25.2808 7.14673 25.3869 7.39849 25.3869H28.2826C28.5343 25.3869 28.7758 25.2808 28.9538 25.092C29.1318 24.9032 29.2318 24.6472 29.2318 24.3802C29.2318 24.1132 29.1318 23.8572 28.9538 23.6684C28.7758 23.4796 28.5343 23.3735 28.2826 23.3735Z" fill="#FDFCFF"/>
</svg>
